<svg version="1.2" xmlns="http://www.w3.org/2000/svg" viewBox="0 0 72 87" width="72" height="87"><style>.a{fill:#acacac}</style><path fill-rule="evenodd" class="a" d="m7 0v87h-7v-87z"/><path fill-rule="evenodd" class="a" d="m72 80v7h-65v-7z"/><path fill-rule="evenodd" class="a" d="m25 56v7h-7v-7z"/><path fill-rule="evenodd" class="a" d="m47 63v7h-22v-7z"/><path fill-rule="evenodd" class="a" d="m54 56v7h-7v-7z"/><path fill-rule="evenodd" class="a" d="m25 21v14h-7v-14z"/><path fill-rule="evenodd" class="a" d="m51 0v7h-44v-7z"/><path fill-rule="evenodd" class="a" d="m44 7v28h-7v-28z"/><path fill-rule="evenodd" class="a" d="m65 28v7h-21v-7z"/><path fill-rule="evenodd" class="a" d="m72 21v59h-7v-59z"/><path fill-rule="evenodd" class="a" d="m58 7v7h-7v-7z"/><path fill-rule="evenodd" class="a" d="m65 14v7h-7v-7z"/></svg>